<?xml version="1.0" encoding="UTF-8" standalone="no"?><svg xmlns="http://www.w3.org/2000/svg" xmlns:xlink="http://www.w3.org/1999/xlink" contentScriptType="application/ecmascript" contentStyleType="text/css" height="443px" preserveAspectRatio="none" style="width:821px;height:443px;" version="1.1" viewBox="0 0 821 443" width="821px" zoomAndPan="magnify"><defs><filter height="300%" id="f1ekos0q3hpmpi" width="300%" x="-1" y="-1"><feGaussianBlur result="blurOut" stdDeviation="2.0"/><feColorMatrix in="blurOut" result="blurOut2" type="matrix" values="0 0 0 0 0 0 0 0 0 0 0 0 0 0 0 0 0 0 .4 0"/><feOffset dx="4.0" dy="4.0" in="blurOut2" result="blurOut3"/><feBlend in="SourceGraphic" in2="blurOut3" mode="normal"/></filter></defs><g><!--class AbstarctFactory--><rect fill="#FFFFFF" filter="url(#f1ekos0q3hpmpi)" height="73.9102" id="AbstarctFactory" style="stroke: #000000; stroke-width: 1.5;" width="208" x="254" y="116"/><ellipse cx="309.25" cy="132" fill="#B4A7E5" rx="11" ry="11" style="stroke: #000000; stroke-width: 1.0;"/><path d="M305.1777,127.7651 L305.1777,125.6069 L312.5571,125.6069 L312.5571,127.7651 L310.0918,127.7651 L310.0918,135.8418 L312.5571,135.8418 L312.5571,138 L305.1777,138 L305.1777,135.8418 L307.6431,135.8418 L307.6431,127.7651 Z "/><text fill="#000000" font-family="sans-serif" font-size="12" font-style="italic" lengthAdjust="spacingAndGlyphs" textLength="89" x="329.75" y="136.5352">AbstarctFactory</text><line style="stroke: #000000; stroke-width: 1.5;" x1="255" x2="461" y1="148" y2="148"/><line style="stroke: #000000; stroke-width: 1.5;" x1="255" x2="461" y1="156" y2="156"/><text fill="#000000" font-family="sans-serif" font-size="11" lengthAdjust="spacingAndGlyphs" textLength="196" x="260" y="170.6348">createProductA() : AbstractProductA</text><text fill="#000000" font-family="sans-serif" font-size="11" lengthAdjust="spacingAndGlyphs" textLength="191" x="260" y="183.5898">createProductB() :AbstractProductA</text><!--class ConcreteFactory1--><rect fill="#FFFFFF" filter="url(#f1ekos0q3hpmpi)" height="73.9102" id="ConcreteFactory1" style="stroke: #000000; stroke-width: 1.5;" width="218" x="426" y="250"/><ellipse cx="480.75" cy="266" fill="#ADD1B2" rx="11" ry="11" style="stroke: #000000; stroke-width: 1.0;"/><path d="M483.7231,271.6431 Q483.1421,271.9419 482.5029,272.0913 Q481.8638,272.2407 481.1582,272.2407 Q478.6514,272.2407 477.3315,270.5889 Q476.0117,268.937 476.0117,265.8159 Q476.0117,262.6865 477.3315,261.0347 Q478.6514,259.3828 481.1582,259.3828 Q481.8638,259.3828 482.5112,259.5322 Q483.1587,259.6816 483.7231,259.9805 L483.7231,262.7031 Q483.0923,262.1221 482.4988,261.8523 Q481.9053,261.5825 481.2744,261.5825 Q479.9297,261.5825 479.2449,262.6492 Q478.5601,263.7158 478.5601,265.8159 Q478.5601,267.9077 479.2449,268.9744 Q479.9297,270.041 481.2744,270.041 Q481.9053,270.041 482.4988,269.7712 Q483.0923,269.5015 483.7231,268.9204 Z "/><text fill="#000000" font-family="sans-serif" font-size="12" lengthAdjust="spacingAndGlyphs" textLength="100" x="501.25" y="270.5352">ConcreteFactory1</text><line style="stroke: #000000; stroke-width: 1.5;" x1="427" x2="643" y1="282" y2="282"/><line style="stroke: #000000; stroke-width: 1.5;" x1="427" x2="643" y1="290" y2="290"/><text fill="#000000" font-family="sans-serif" font-size="11" lengthAdjust="spacingAndGlyphs" textLength="206" x="432" y="304.6348">createProductA() : ConcreteProduct1A</text><text fill="#000000" font-family="sans-serif" font-size="11" lengthAdjust="spacingAndGlyphs" textLength="199" x="432" y="317.5898">createProductB() :ConcreteProduct1B</text><!--class ConcreteFactory2--><rect fill="#FFFFFF" filter="url(#f1ekos0q3hpmpi)" height="73.9102" id="ConcreteFactory2" style="stroke: #000000; stroke-width: 1.5;" width="218" x="173" y="250"/><ellipse cx="227.75" cy="266" fill="#ADD1B2" rx="11" ry="11" style="stroke: #000000; stroke-width: 1.0;"/><path d="M230.7231,271.6431 Q230.1421,271.9419 229.5029,272.0913 Q228.8638,272.2407 228.1582,272.2407 Q225.6514,272.2407 224.3315,270.5889 Q223.0117,268.937 223.0117,265.8159 Q223.0117,262.6865 224.3315,261.0347 Q225.6514,259.3828 228.1582,259.3828 Q228.8638,259.3828 229.5112,259.5322 Q230.1587,259.6816 230.7231,259.9805 L230.7231,262.7031 Q230.0923,262.1221 229.4988,261.8523 Q228.9053,261.5825 228.2744,261.5825 Q226.9297,261.5825 226.2449,262.6492 Q225.5601,263.7158 225.5601,265.8159 Q225.5601,267.9077 226.2449,268.9744 Q226.9297,270.041 228.2744,270.041 Q228.9053,270.041 229.4988,269.7712 Q230.0923,269.5015 230.7231,268.9204 Z "/><text fill="#000000" font-family="sans-serif" font-size="12" lengthAdjust="spacingAndGlyphs" textLength="100" x="248.25" y="270.5352">ConcreteFactory2</text><line style="stroke: #000000; stroke-width: 1.5;" x1="174" x2="390" y1="282" y2="282"/><line style="stroke: #000000; stroke-width: 1.5;" x1="174" x2="390" y1="290" y2="290"/><text fill="#000000" font-family="sans-serif" font-size="11" lengthAdjust="spacingAndGlyphs" textLength="206" x="179" y="304.6348">createProductA() : ConcreteProduct2A</text><text fill="#000000" font-family="sans-serif" font-size="11" lengthAdjust="spacingAndGlyphs" textLength="202" x="179" y="317.5898">createProductB() : ConcreteProduct2B</text><!--class AbstractProductA--><rect fill="#FFFFFF" filter="url(#f1ekos0q3hpmpi)" height="48" id="AbstractProductA" style="stroke: #000000; stroke-width: 1.5;" width="132" x="6" y="263"/><ellipse cx="21" cy="279" fill="#ADD1B2" rx="11" ry="11" style="stroke: #000000; stroke-width: 1.0;"/><path d="M23.9731,284.6431 Q23.3921,284.9419 22.7529,285.0913 Q22.1138,285.2407 21.4082,285.2407 Q18.9014,285.2407 17.5815,283.5889 Q16.2617,281.937 16.2617,278.8159 Q16.2617,275.6865 17.5815,274.0347 Q18.9014,272.3828 21.4082,272.3828 Q22.1138,272.3828 22.7612,272.5322 Q23.4087,272.6816 23.9731,272.9805 L23.9731,275.7031 Q23.3423,275.1221 22.7488,274.8523 Q22.1553,274.5825 21.5244,274.5825 Q20.1797,274.5825 19.4949,275.6492 Q18.8101,276.7158 18.8101,278.8159 Q18.8101,280.9077 19.4949,281.9744 Q20.1797,283.041 21.5244,283.041 Q22.1553,283.041 22.7488,282.7712 Q23.3423,282.5015 23.9731,281.9204 Z "/><text fill="#000000" font-family="sans-serif" font-size="12" lengthAdjust="spacingAndGlyphs" textLength="100" x="35" y="283.5352">AbstractProductA</text><line style="stroke: #000000; stroke-width: 1.5;" x1="7" x2="137" y1="295" y2="295"/><line style="stroke: #000000; stroke-width: 1.5;" x1="7" x2="137" y1="303" y2="303"/><!--class AbstractProductB--><rect fill="#FFFFFF" filter="url(#f1ekos0q3hpmpi)" height="48" id="AbstractProductB" style="stroke: #000000; stroke-width: 1.5;" width="131" x="679.5" y="263"/><ellipse cx="694.5" cy="279" fill="#ADD1B2" rx="11" ry="11" style="stroke: #000000; stroke-width: 1.0;"/><path d="M697.4731,284.6431 Q696.8921,284.9419 696.2529,285.0913 Q695.6138,285.2407 694.9082,285.2407 Q692.4014,285.2407 691.0815,283.5889 Q689.7617,281.937 689.7617,278.8159 Q689.7617,275.6865 691.0815,274.0347 Q692.4014,272.3828 694.9082,272.3828 Q695.6138,272.3828 696.2612,272.5322 Q696.9087,272.6816 697.4731,272.9805 L697.4731,275.7031 Q696.8423,275.1221 696.2488,274.8523 Q695.6553,274.5825 695.0244,274.5825 Q693.6797,274.5825 692.9949,275.6492 Q692.3101,276.7158 692.3101,278.8159 Q692.3101,280.9077 692.9949,281.9744 Q693.6797,283.041 695.0244,283.041 Q695.6553,283.041 696.2488,282.7712 Q696.8423,282.5015 697.4731,281.9204 Z "/><text fill="#000000" font-family="sans-serif" font-size="12" lengthAdjust="spacingAndGlyphs" textLength="99" x="708.5" y="283.5352">AbstractProductB</text><line style="stroke: #000000; stroke-width: 1.5;" x1="680.5" x2="809.5" y1="295" y2="295"/><line style="stroke: #000000; stroke-width: 1.5;" x1="680.5" x2="809.5" y1="303" y2="303"/><!--class ConcreteProduct1A--><rect fill="#FFFFFF" filter="url(#f1ekos0q3hpmpi)" height="48" id="ConcreteProduct1A" style="stroke: #000000; stroke-width: 1.5;" width="143" x="283.5" y="384"/><ellipse cx="298.5" cy="400" fill="#ADD1B2" rx="11" ry="11" style="stroke: #000000; stroke-width: 1.0;"/><path d="M301.4731,405.6431 Q300.8921,405.9419 300.2529,406.0913 Q299.6138,406.2407 298.9082,406.2407 Q296.4014,406.2407 295.0815,404.5889 Q293.7617,402.937 293.7617,399.8159 Q293.7617,396.6865 295.0815,395.0347 Q296.4014,393.3828 298.9082,393.3828 Q299.6138,393.3828 300.2612,393.5322 Q300.9087,393.6816 301.4731,393.9805 L301.4731,396.7031 Q300.8423,396.1221 300.2488,395.8523 Q299.6553,395.5825 299.0244,395.5825 Q297.6797,395.5825 296.9949,396.6492 Q296.3101,397.7158 296.3101,399.8159 Q296.3101,401.9077 296.9949,402.9744 Q297.6797,404.041 299.0244,404.041 Q299.6553,404.041 300.2488,403.7712 Q300.8423,403.5015 301.4731,402.9204 Z "/><text fill="#000000" font-family="sans-serif" font-size="12" lengthAdjust="spacingAndGlyphs" textLength="111" x="312.5" y="404.5352">ConcreteProduct1A</text><line style="stroke: #000000; stroke-width: 1.5;" x1="284.5" x2="425.5" y1="416" y2="416"/><line style="stroke: #000000; stroke-width: 1.5;" x1="284.5" x2="425.5" y1="424" y2="424"/><!--class ConcreteProduct1B--><rect fill="#FFFFFF" filter="url(#f1ekos0q3hpmpi)" height="48" id="ConcreteProduct1B" style="stroke: #000000; stroke-width: 1.5;" width="142" x="665" y="384"/><ellipse cx="680" cy="400" fill="#ADD1B2" rx="11" ry="11" style="stroke: #000000; stroke-width: 1.0;"/><path d="M682.9731,405.6431 Q682.3921,405.9419 681.7529,406.0913 Q681.1138,406.2407 680.4082,406.2407 Q677.9014,406.2407 676.5815,404.5889 Q675.2617,402.937 675.2617,399.8159 Q675.2617,396.6865 676.5815,395.0347 Q677.9014,393.3828 680.4082,393.3828 Q681.1138,393.3828 681.7612,393.5322 Q682.4087,393.6816 682.9731,393.9805 L682.9731,396.7031 Q682.3423,396.1221 681.7488,395.8523 Q681.1553,395.5825 680.5244,395.5825 Q679.1797,395.5825 678.4949,396.6492 Q677.8101,397.7158 677.8101,399.8159 Q677.8101,401.9077 678.4949,402.9744 Q679.1797,404.041 680.5244,404.041 Q681.1553,404.041 681.7488,403.7712 Q682.3423,403.5015 682.9731,402.9204 Z "/><text fill="#000000" font-family="sans-serif" font-size="12" lengthAdjust="spacingAndGlyphs" textLength="110" x="694" y="404.5352">ConcreteProduct1B</text><line style="stroke: #000000; stroke-width: 1.5;" x1="666" x2="806" y1="416" y2="416"/><line style="stroke: #000000; stroke-width: 1.5;" x1="666" x2="806" y1="424" y2="424"/><!--class ConcreteProduct2A--><rect fill="#FFFFFF" filter="url(#f1ekos0q3hpmpi)" height="48" id="ConcreteProduct2A" style="stroke: #000000; stroke-width: 1.5;" width="143" x="70.5" y="384"/><ellipse cx="85.5" cy="400" fill="#ADD1B2" rx="11" ry="11" style="stroke: #000000; stroke-width: 1.0;"/><path d="M88.4731,405.6431 Q87.8921,405.9419 87.2529,406.0913 Q86.6138,406.2407 85.9082,406.2407 Q83.4014,406.2407 82.0815,404.5889 Q80.7617,402.937 80.7617,399.8159 Q80.7617,396.6865 82.0815,395.0347 Q83.4014,393.3828 85.9082,393.3828 Q86.6138,393.3828 87.2612,393.5322 Q87.9087,393.6816 88.4731,393.9805 L88.4731,396.7031 Q87.8423,396.1221 87.2488,395.8523 Q86.6553,395.5825 86.0244,395.5825 Q84.6797,395.5825 83.9949,396.6492 Q83.3101,397.7158 83.3101,399.8159 Q83.3101,401.9077 83.9949,402.9744 Q84.6797,404.041 86.0244,404.041 Q86.6553,404.041 87.2488,403.7712 Q87.8423,403.5015 88.4731,402.9204 Z "/><text fill="#000000" font-family="sans-serif" font-size="12" lengthAdjust="spacingAndGlyphs" textLength="111" x="99.5" y="404.5352">ConcreteProduct2A</text><line style="stroke: #000000; stroke-width: 1.5;" x1="71.5" x2="212.5" y1="416" y2="416"/><line style="stroke: #000000; stroke-width: 1.5;" x1="71.5" x2="212.5" y1="424" y2="424"/><!--class ConcreteProduct2B--><rect fill="#FFFFFF" filter="url(#f1ekos0q3hpmpi)" height="48" id="ConcreteProduct2B" style="stroke: #000000; stroke-width: 1.5;" width="142" x="479" y="384"/><ellipse cx="494" cy="400" fill="#ADD1B2" rx="11" ry="11" style="stroke: #000000; stroke-width: 1.0;"/><path d="M496.9731,405.6431 Q496.3921,405.9419 495.7529,406.0913 Q495.1138,406.2407 494.4082,406.2407 Q491.9014,406.2407 490.5815,404.5889 Q489.2617,402.937 489.2617,399.8159 Q489.2617,396.6865 490.5815,395.0347 Q491.9014,393.3828 494.4082,393.3828 Q495.1138,393.3828 495.7612,393.5322 Q496.4087,393.6816 496.9731,393.9805 L496.9731,396.7031 Q496.3423,396.1221 495.7488,395.8523 Q495.1553,395.5825 494.5244,395.5825 Q493.1797,395.5825 492.4949,396.6492 Q491.8101,397.7158 491.8101,399.8159 Q491.8101,401.9077 492.4949,402.9744 Q493.1797,404.041 494.5244,404.041 Q495.1553,404.041 495.7488,403.7712 Q496.3423,403.5015 496.9731,402.9204 Z "/><text fill="#000000" font-family="sans-serif" font-size="12" lengthAdjust="spacingAndGlyphs" textLength="110" x="508" y="404.5352">ConcreteProduct2B</text><line style="stroke: #000000; stroke-width: 1.5;" x1="480" x2="620" y1="416" y2="416"/><line style="stroke: #000000; stroke-width: 1.5;" x1="480" x2="620" y1="424" y2="424"/><!--class Client--><rect fill="#FFFFFF" filter="url(#f1ekos0q3hpmpi)" height="48" id="Client" style="stroke: #000000; stroke-width: 1.5;" width="64" x="326" y="8"/><ellipse cx="341" cy="24" fill="#ADD1B2" rx="11" ry="11" style="stroke: #000000; stroke-width: 1.0;"/><path d="M343.9731,29.6431 Q343.3921,29.9419 342.7529,30.0913 Q342.1138,30.2407 341.4082,30.2407 Q338.9014,30.2407 337.5815,28.5889 Q336.2617,26.937 336.2617,23.8159 Q336.2617,20.6865 337.5815,19.0347 Q338.9014,17.3828 341.4082,17.3828 Q342.1138,17.3828 342.7612,17.5322 Q343.4087,17.6816 343.9731,17.9805 L343.9731,20.7031 Q343.3423,20.1221 342.7488,19.8523 Q342.1553,19.5825 341.5244,19.5825 Q340.1797,19.5825 339.4949,20.6492 Q338.8101,21.7158 338.8101,23.8159 Q338.8101,25.9077 339.4949,26.9744 Q340.1797,28.041 341.5244,28.041 Q342.1553,28.041 342.7488,27.7712 Q343.3423,27.5015 343.9731,26.9204 Z "/><text fill="#000000" font-family="sans-serif" font-size="12" lengthAdjust="spacingAndGlyphs" textLength="32" x="355" y="28.5352">Client</text><line style="stroke: #000000; stroke-width: 1.5;" x1="327" x2="389" y1="40" y2="40"/><line style="stroke: #000000; stroke-width: 1.5;" x1="327" x2="389" y1="48" y2="48"/><!--reverse link AbstarctFactory to ConcreteFactory1--><path d="M422.48,202.08 C443.69,217.9 466.89,235.21 486.69,249.97 " fill="none" id="AbstarctFactory&lt;-ConcreteFactory1" style="stroke: #000000; stroke-width: 1.0;"/><polygon fill="none" points="418.21,207.64,406.37,190.07,426.58,196.41,418.21,207.64" style="stroke: #000000; stroke-width: 1.0;"/><!--reverse link AbstarctFactory to ConcreteFactory2--><path d="M327.19,207.51 C318.97,221.79 310.28,236.88 302.74,249.97 " fill="none" id="AbstarctFactory&lt;-ConcreteFactory2" style="stroke: #000000; stroke-width: 1.0;"/><polygon fill="none" points="321.19,203.91,337.23,190.07,333.32,210.89,321.19,203.91" style="stroke: #000000; stroke-width: 1.0;"/><!--reverse link AbstractProductA to ConcreteProduct1A--><path d="M143.89,319.27 C147.65,320.87 151.37,322.46 155,324 C203.45,344.56 258.72,367.45 298.86,383.98 " fill="none" id="AbstractProductA&lt;-ConcreteProduct1A" style="stroke: #000000; stroke-width: 1.0;"/><polygon fill="none" points="140.68,325.51,125.08,311.17,146.22,312.65,140.68,325.51" style="stroke: #000000; stroke-width: 1.0;"/><!--reverse link AbstractProductA to ConcreteProduct2A--><path d="M95.81,328.47 C106.66,346.93 119.13,368.12 128.37,383.83 " fill="none" id="AbstractProductA&lt;-ConcreteProduct2A" style="stroke: #000000; stroke-width: 1.0;"/><polygon fill="none" points="89.77,332.01,85.66,311.23,101.84,324.92,89.77,332.01" style="stroke: #000000; stroke-width: 1.0;"/><!--reverse link AbstractProductB to ConcreteProduct1B--><path d="M741.72,331.38 C740.38,349.12 738.88,368.94 737.75,383.83 " fill="none" id="AbstractProductB&lt;-ConcreteProduct1B" style="stroke: #000000; stroke-width: 1.0;"/><polygon fill="none" points="734.75,330.64,743.24,311.23,748.72,331.7,734.75,330.64" style="stroke: #000000; stroke-width: 1.0;"/><!--reverse link AbstractProductB to ConcreteProduct2B--><path d="M689.79,321.69 C657.26,341.55 616.93,366.16 587.96,383.83 " fill="none" id="AbstractProductB&lt;-ConcreteProduct2B" style="stroke: #000000; stroke-width: 1.0;"/><polygon fill="none" points="686.22,315.67,706.94,311.23,693.51,327.62,686.22,315.67" style="stroke: #000000; stroke-width: 1.0;"/><!--link ConcreteFactory1 to ConcreteProduct1A--><path d="M480.51,324.03 C452.73,342.39 419.57,364.31 394.32,381.01 " fill="none" id="ConcreteFactory1-&gt;ConcreteProduct1A" style="stroke: #000000; stroke-width: 1.0; stroke-dasharray: 7.0,7.0;"/><polygon fill="#000000" points="390.02,383.85,399.7338,382.2244,394.1912,381.093,395.3226,375.5504,390.02,383.85" style="stroke: #000000; stroke-width: 1.0;"/><!--link ConcreteFactory1 to ConcreteProduct1B--><path d="M595.85,324.03 C627,342.47 664.2,364.49 692.44,381.21 " fill="none" id="ConcreteFactory1-&gt;ConcreteProduct1B" style="stroke: #000000; stroke-width: 1.0; stroke-dasharray: 7.0,7.0;"/><polygon fill="#000000" points="696.9,383.85,691.209,375.8118,692.6025,381.2943,687.12,382.6878,696.9,383.85" style="stroke: #000000; stroke-width: 1.0;"/><!--link ConcreteFactory2 to ConcreteProduct2A--><path d="M239.62,324.03 C218.19,342.24 192.65,363.95 173.07,380.59 " fill="none" id="ConcreteFactory2-&gt;ConcreteProduct2A" style="stroke: #000000; stroke-width: 1.0; stroke-dasharray: 7.0,7.0;"/><polygon fill="#000000" points="169.23,383.85,178.6777,381.0679,173.0393,380.6113,173.4959,374.9729,169.23,383.85" style="stroke: #000000; stroke-width: 1.0;"/><!--link ConcreteFactory2 to ConcreteProduct2B--><path d="M363.14,324.03 C405.01,342.62 455.08,364.85 492.85,381.63 " fill="none" id="ConcreteFactory2-&gt;ConcreteProduct2B" style="stroke: #000000; stroke-width: 1.0; stroke-dasharray: 7.0,7.0;"/><polygon fill="#000000" points="497.86,383.85,491.2751,376.5261,493.2951,381.81,488.0112,383.83,497.86,383.85" style="stroke: #000000; stroke-width: 1.0;"/><!--link Client to AbstarctFactory--><path d="M358,56.23 C358,71.68 358,92.42 358,110.65 " fill="none" id="Client-&gt;AbstarctFactory" style="stroke: #000000; stroke-width: 1.0; stroke-dasharray: 7.0,7.0;"/><polygon fill="#000000" points="358,115.71,362,106.71,358,110.71,354,106.71,358,115.71" style="stroke: #000000; stroke-width: 1.0;"/><!--link Client to AbstractProductA--><path d="M325.88,52.29 C300.5,68.13 264.7,91.81 236,116 C181.61,161.84 125.64,223.61 95.2,258.67 " fill="none" id="Client-&gt;AbstractProductA" style="stroke: #000000; stroke-width: 1.0; stroke-dasharray: 7.0,7.0;"/><polygon fill="#000000" points="91.61,262.81,100.5211,258.6157,94.8792,259.0268,94.4681,253.385,91.61,262.81" style="stroke: #000000; stroke-width: 1.0;"/><!--link Client to AbstractProductB--><path d="M390.33,54.14 C460.86,100.25 628.38,209.76 705.23,260 " fill="none" id="Client-&gt;AbstractProductB" style="stroke: #000000; stroke-width: 1.0; stroke-dasharray: 7.0,7.0;"/><polygon fill="#000000" points="709.71,262.93,704.3549,254.6643,705.5214,260.1995,699.9861,261.3661,709.71,262.93" style="stroke: #000000; stroke-width: 1.0;"/><!--
@startuml flex
    skinparam class {
	BackgroundColor White
	ArrowColor Black
	BorderColor Black
	
}
interface AbstarctFactory{
	createProductA() : AbstractProductA
	createProductB() :AbstractProductA
}
class ConcreteFactory1 {
	createProductA() : ConcreteProduct1A
	createProductB() :ConcreteProduct1B
}
class ConcreteFactory2{
	createProductA() : ConcreteProduct2A
	createProductB() : ConcreteProduct2B
}
class AbstractProductA{

}
class AbstractProductB{

}
class ConcreteProduct1A{

}
class ConcreteProduct1B{

}
class ConcreteProduct2A{

}
class ConcreteProduct2B{

}
class Client{

}


AbstarctFactory <|- - ConcreteFactory1
AbstarctFactory <|- - ConcreteFactory2

AbstractProductA <|- - ConcreteProduct1A
AbstractProductA <|- - ConcreteProduct2A

AbstractProductB <|- - ConcreteProduct1B
AbstractProductB <|- - ConcreteProduct2B


ConcreteFactory1 ..>  ConcreteProduct1A
ConcreteFactory1 ..>  ConcreteProduct1B
ConcreteFactory2 ..>  ConcreteProduct2A
ConcreteFactory2 ..>  ConcreteProduct2B

Client ..> AbstarctFactory
Client ..> AbstractProductA
Client ..> AbstractProductB 



@enduml

PlantUML version 1.2019.09(Mon Aug 26 21:19:51 YEKT 2019)
(GPL source distribution)
Java Runtime: Java(TM) SE Runtime Environment
JVM: Java HotSpot(TM) 64-Bit Server VM
Java Version: 1.8.0_221-b11
Operating System: Mac OS X
OS Version: 10.13.6
Default Encoding: UTF-8
Language: en
Country: RU
--></g></svg>